<?xml version="1.0" encoding="UTF-8"?>
<!-- Favicon exportado directamente desde BrainIcon.tsx -->
<svg xmlns="http://www.w3.org/2000/svg" width="64" height="64" viewBox="-40 0 720 640" aria-hidden="true">
  <defs>
    <radialGradient id="brainGradient" cx="50%" cy="45%" r="65%">
      <stop offset="0%" stop-color="#f9a8d4" />
      <stop offset="45%" stop-color="#d946ef" />
      <stop offset="100%" stop-color="#7c3aed" />
    </radialGradient>
  </defs>
  <path
    fill="url(#brainGradient)"
    d="M640 274c0-44.2-35.8-80-80-80-6.9 0-13.6.9-20 2.5-7.1-36.5-39.4-64.5-78-64.5-5.5 0-10.9.6-16.1 1.7C430.5 103.3 400.4 83.7 368 83.7c-15.1 0-29.4 3.3-42.4 9.2C307.2 64.8 273.5 35.7 232 35.7c-53 0-96 43-96 96 0 9.7 1.5 19.1 4.2 28-37.7 7.5-66.2 40.6-66.2 80.8 0 17.2 5.3 33.2 14.4 46.5C66.1 309.6 48 337.2 48 369.4c0 52.2 39.8 95.2 91 100.6 5.9 33.1 50 77.7 105 77.7 36.1 0 68.2-17.2 88.4-43.8 16.2 15.1 37.8 24.4 61.6 24.4 41 0 75.9-27.8 86.5-65.5 7.3 1.9 14.9 2.9 22.8 2.9 53 0 96-43 96-96 0-8.4-1.1-16.5-3.1-24.3 20.3-12.2 37.4-30.8 37.4-61.4z"
  />
</svg>


